<?xml version="1.0" encoding="UTF-8"?>
<svg xmlns="http://www.w3.org/2000/svg" xmlns:xlink="http://www.w3.org/1999/xlink" width="32px" height="32px" viewBox="0 0 32 32" version="1.1">
<g id="surface1">
<path style=" stroke:none;fill-rule:nonzero;fill:rgb(53.333333%,40%,80%);fill-opacity:1;" d="M 26.894531 13.09375 C 26.519531 13.089844 26.144531 13.121094 25.773438 13.1875 C 25.578125 12.003906 24.882812 10.964844 23.867188 10.332031 L 23.492188 10.121094 L 23.238281 10.480469 C 22.921875 10.964844 22.691406 11.5 22.558594 12.066406 C 22.292969 13.070312 22.453125 14.140625 23 15.027344 C 22.390625 15.300781 21.734375 15.457031 21.066406 15.492188 L 3.507812 15.492188 C 3.046875 15.492188 2.675781 15.859375 2.667969 16.320312 C 2.648438 17.859375 2.914062 19.390625 3.441406 20.839844 C 3.914062 22.261719 4.851562 23.484375 6.105469 24.308594 C 7.929688 25.230469 9.960938 25.667969 12 25.574219 C 13.082031 25.59375 14.160156 25.511719 15.226562 25.332031 C 16.722656 25.066406 18.160156 24.546875 19.480469 23.800781 C 20.570312 23.136719 21.546875 22.304688 22.375 21.332031 C 23.605469 19.886719 24.566406 18.226562 25.214844 16.441406 L 25.464844 16.441406 C 26.566406 16.480469 27.640625 16.078125 28.441406 15.320312 C 28.785156 14.996094 29.054688 14.601562 29.226562 14.160156 L 29.332031 13.867188 L 29.066406 13.652344 C 28.421875 13.238281 27.660156 13.042969 26.894531 13.09375 Z M 26.894531 13.09375 "/>
<path style=" stroke:none;fill-rule:nonzero;fill:rgb(53.333333%,40%,80%);fill-opacity:1;" d="M 7.480469 12.464844 L 5.132812 12.464844 C 5.019531 12.464844 4.925781 12.554688 4.921875 12.667969 L 4.921875 14.773438 C 4.925781 14.886719 5.019531 14.972656 5.132812 14.972656 L 7.480469 14.972656 C 7.59375 14.972656 7.6875 14.886719 7.691406 14.773438 L 7.691406 12.667969 C 7.6875 12.554688 7.59375 12.464844 7.480469 12.464844 Z M 10.734375 12.464844 L 8.375 12.464844 C 8.261719 12.464844 8.167969 12.554688 8.160156 12.667969 L 8.160156 14.773438 C 8.167969 14.886719 8.261719 14.972656 8.375 14.972656 L 10.734375 14.972656 C 10.84375 14.972656 10.933594 14.882812 10.933594 14.773438 L 10.933594 12.667969 C 10.933594 12.554688 10.84375 12.464844 10.734375 12.464844 Z M 14.027344 12.464844 L 11.667969 12.464844 C 11.554688 12.464844 11.464844 12.554688 11.464844 12.667969 L 11.464844 14.773438 C 11.464844 14.882812 11.554688 14.972656 11.667969 14.972656 L 14.027344 14.972656 C 14.136719 14.972656 14.226562 14.882812 14.226562 14.773438 L 14.226562 12.667969 C 14.226562 12.554688 14.136719 12.464844 14.027344 12.464844 Z M 14.921875 12.464844 C 14.859375 12.449219 14.792969 12.464844 14.742188 12.503906 C 14.691406 12.542969 14.664062 12.601562 14.667969 12.667969 L 14.667969 14.773438 C 14.667969 14.882812 14.757812 14.972656 14.867188 14.972656 L 17.332031 14.972656 C 17.445312 14.972656 17.535156 14.882812 17.535156 14.773438 L 17.535156 12.667969 C 17.535156 12.554688 17.445312 12.464844 17.332031 12.464844 Z M 8.375 9.453125 L 10.667969 9.453125 C 10.785156 9.453125 10.878906 9.550781 10.878906 9.667969 L 10.878906 11.746094 C 10.890625 11.808594 10.875 11.875 10.832031 11.925781 C 10.792969 11.972656 10.730469 12 10.667969 12 L 8.375 12 C 8.261719 12 8.171875 11.910156 8.171875 11.800781 L 8.171875 9.652344 C 8.171875 9.542969 8.261719 9.453125 8.375 9.453125 Z M 11.667969 9.453125 L 14.027344 9.453125 C 14.136719 9.453125 14.226562 9.542969 14.226562 9.652344 L 14.226562 11.746094 C 14.226562 11.863281 14.132812 11.960938 14.011719 11.960938 L 11.667969 11.960938 C 11.554688 11.960938 11.464844 11.871094 11.464844 11.761719 L 11.464844 9.652344 C 11.464844 9.542969 11.554688 9.453125 11.667969 9.453125 Z M 14.921875 9.453125 L 17.332031 9.453125 C 17.445312 9.453125 17.535156 9.542969 17.535156 9.652344 L 17.535156 11.746094 C 17.550781 11.808594 17.535156 11.875 17.496094 11.925781 C 17.457031 11.972656 17.398438 12.003906 17.332031 12 L 14.921875 12 C 14.847656 12.015625 14.777344 11.992188 14.722656 11.941406 C 14.671875 11.890625 14.652344 11.816406 14.667969 11.746094 L 14.667969 9.652344 C 14.664062 9.589844 14.691406 9.527344 14.742188 9.488281 C 14.792969 9.449219 14.859375 9.4375 14.921875 9.453125 Z M 14.921875 9.453125 "/>
<path style=" stroke:none;fill-rule:nonzero;fill:rgb(53.333333%,40%,80%);fill-opacity:1;" d="M 14.921875 6.425781 L 17.28125 6.425781 C 17.390625 6.425781 17.480469 6.515625 17.480469 6.625 L 17.480469 8.734375 C 17.480469 8.84375 17.390625 8.933594 17.28125 8.933594 L 14.921875 8.933594 C 14.808594 8.933594 14.71875 8.84375 14.71875 8.734375 L 14.71875 6.625 C 14.71875 6.515625 14.808594 6.425781 14.921875 6.425781 Z M 14.921875 6.425781 "/>
<path style=" stroke:none;fill-rule:nonzero;fill:rgb(53.333333%,40%,80%);fill-opacity:1;" d="M 18.199219 12.464844 C 18.089844 12.464844 18 12.554688 18 12.667969 L 18 14.773438 C 18 14.882812 18.089844 14.972656 18.199219 14.972656 L 20.558594 14.972656 C 20.671875 14.972656 20.761719 14.882812 20.761719 14.773438 L 20.761719 12.667969 C 20.761719 12.554688 20.671875 12.464844 20.558594 12.464844 Z M 18.199219 12.464844 "/>
</g>
</svg>
