<?xml version="1.0" encoding="UTF-8"?>
<svg xmlns="http://www.w3.org/2000/svg" xmlns:xlink="http://www.w3.org/1999/xlink" width="32px" height="32px" viewBox="0 0 32 32" version="1.1">
<g id="surface1">
<path style=" stroke:none;fill-rule:nonzero;fill:rgb(53.333333%,40%,80%);fill-opacity:1;" d="M 20.441406 11.558594 C 22.84375 11.484375 24.753906 9.519531 24.753906 7.117188 C 24.753906 4.710938 22.84375 2.746094 20.441406 2.671875 L 11.558594 2.671875 C 9.15625 2.746094 7.246094 4.710938 7.246094 7.117188 C 7.246094 9.519531 9.15625 11.484375 11.558594 11.558594 C 9.132812 11.597656 7.191406 13.578125 7.191406 16 C 7.191406 18.425781 9.132812 20.402344 11.558594 20.445312 C 9.144531 20.503906 7.222656 22.476562 7.222656 24.886719 C 7.222656 27.296875 9.144531 29.269531 11.558594 29.328125 C 14.011719 29.328125 16 27.339844 16 24.886719 L 16 11.558594 Z M 20.441406 11.558594 "/>
<path style=" stroke:none;fill-rule:nonzero;fill:rgb(53.333333%,40%,80%);fill-opacity:1;" d="M 24.886719 16 C 24.886719 18.453125 22.894531 20.441406 20.441406 20.441406 C 17.988281 20.441406 16 18.453125 16 16 C 16 13.546875 17.988281 11.558594 20.441406 11.558594 C 22.894531 11.558594 24.886719 13.546875 24.886719 16 Z M 24.886719 16 "/>
</g>
</svg>
