<?xml version="1.0" encoding="UTF-8"?>
<svg xmlns="http://www.w3.org/2000/svg" xmlns:xlink="http://www.w3.org/1999/xlink" width="32px" height="32px" viewBox="0 0 32 32" version="1.1">
<g id="surface1">
<path style=" stroke:none;fill-rule:nonzero;fill:rgb(53.333333%,40%,80%);fill-opacity:1;" d="M 16.855469 10.777344 C 16.371094 11.03125 15.800781 11.339844 15.199219 11.339844 C 14.597656 11.339844 14.121094 11.058594 13.777344 10.789062 C 13.605469 10.652344 13.464844 10.519531 13.363281 10.421875 C 13.179688 10.277344 13.203125 10.074219 13.277344 10.082031 C 13.402344 10.097656 13.421875 10.261719 13.5 10.335938 C 13.605469 10.4375 13.738281 10.566406 13.902344 10.695312 C 14.226562 10.949219 14.660156 11.203125 15.199219 11.203125 C 15.742188 11.203125 16.371094 10.882812 16.757812 10.667969 C 16.972656 10.546875 17.25 10.328125 17.476562 10.160156 C 17.652344 10.035156 17.644531 9.878906 17.785156 9.894531 C 17.929688 9.914062 17.824219 10.066406 17.625 10.238281 C 17.386719 10.445312 17.128906 10.625 16.855469 10.777344 Z M 16.855469 10.777344 "/>
<path style=" stroke:none;fill-rule:nonzero;fill:rgb(53.333333%,40%,80%);fill-opacity:1;" d="M 26.199219 23.691406 C 26.007812 23.480469 25.921875 23.085938 25.824219 22.664062 C 25.726562 22.246094 25.621094 21.792969 25.277344 21.5 L 25.273438 21.5 C 25.148438 21.390625 25.003906 21.300781 24.851562 21.242188 C 25.328125 19.824219 25.144531 18.40625 24.65625 17.128906 C 24.066406 15.5625 23.027344 14.195312 22.238281 13.261719 C 21.351562 12.144531 20.488281 11.082031 20.503906 9.515625 C 20.53125 7.125 20.765625 2.691406 16.558594 2.6875 C 16.378906 2.6875 16.203125 2.695312 16.023438 2.710938 C 11.324219 3.085938 12.570312 8.054688 12.5 9.714844 C 12.414062 10.933594 12.167969 11.890625 11.332031 13.078125 C 10.347656 14.246094 8.964844 16.140625 8.308594 18.109375 C 8 19.039062 7.851562 19.984375 7.988281 20.882812 C 7.945312 20.917969 7.90625 20.960938 7.867188 21 C 7.578125 21.308594 7.367188 21.679688 7.125 21.933594 C 6.90625 22.15625 6.589844 22.238281 6.242188 22.363281 C 5.894531 22.488281 5.511719 22.671875 5.28125 23.117188 L 5.277344 23.117188 C 5.175781 23.316406 5.128906 23.539062 5.132812 23.765625 C 5.132812 23.96875 5.164062 24.179688 5.195312 24.378906 C 5.261719 24.796875 5.324219 25.191406 5.238281 25.457031 C 4.964844 26.210938 4.929688 26.730469 5.121094 27.109375 C 5.316406 27.488281 5.714844 27.652344 6.167969 27.746094 C 7.066406 27.933594 8.289062 27.886719 9.253906 28.398438 L 9.335938 28.242188 L 9.253906 28.398438 C 10.285156 28.9375 11.328125 29.128906 12.164062 28.941406 C 12.769531 28.800781 13.257812 28.441406 13.511719 27.886719 C 14.164062 27.886719 14.878906 27.609375 16.023438 27.546875 C 16.800781 27.484375 17.773438 27.824219 18.890625 27.761719 C 18.917969 27.882812 18.960938 28 19.019531 28.113281 C 19.453125 28.976562 20.257812 29.375 21.117188 29.308594 C 21.972656 29.238281 22.886719 28.734375 23.625 27.855469 L 23.492188 27.742188 L 23.625 27.851562 C 24.328125 27 25.496094 26.648438 26.273438 26.179688 C 26.660156 25.945312 26.972656 25.652344 26.996094 25.230469 C 27.019531 24.804688 26.773438 24.328125 26.199219 23.691406 Z M 15.8125 8.082031 C 15.808594 7.769531 15.859375 7.503906 15.980469 7.230469 C 16.101562 6.957031 16.246094 6.761719 16.457031 6.605469 C 16.667969 6.445312 16.875 6.371094 17.117188 6.371094 L 17.128906 6.371094 C 17.367188 6.371094 17.570312 6.441406 17.78125 6.59375 C 17.992188 6.746094 18.144531 6.941406 18.269531 7.210938 C 18.390625 7.476562 18.457031 7.765625 18.457031 8.058594 C 18.457031 8.371094 18.40625 8.636719 18.285156 8.910156 C 18.226562 9.054688 18.144531 9.1875 18.046875 9.308594 L 17.949219 9.265625 C 17.828125 9.214844 17.726562 9.171875 17.632812 9.136719 C 17.539062 9.101562 17.464844 9.078125 17.390625 9.050781 C 17.445312 8.984375 17.554688 8.90625 17.59375 8.808594 C 17.652344 8.664062 17.683594 8.503906 17.6875 8.347656 L 17.691406 8.324219 C 17.695312 8.171875 17.671875 8.019531 17.625 7.875 C 17.574219 7.726562 17.507812 7.617188 17.417969 7.523438 C 17.324219 7.433594 17.230469 7.394531 17.121094 7.390625 L 17.105469 7.390625 C 16.996094 7.390625 16.894531 7.433594 16.816406 7.503906 C 16.710938 7.59375 16.632812 7.710938 16.585938 7.839844 C 16.523438 7.984375 16.492188 8.144531 16.488281 8.300781 L 16.488281 8.324219 C 16.484375 8.410156 16.488281 8.5 16.503906 8.589844 C 16.289062 8.488281 16.0625 8.414062 15.828125 8.363281 C 15.816406 8.277344 15.8125 8.191406 15.8125 8.109375 Z M 12.953125 8.152344 C 12.9375 7.882812 12.964844 7.652344 13.039062 7.410156 C 13.113281 7.171875 13.210938 6.996094 13.355469 6.851562 C 13.476562 6.722656 13.644531 6.640625 13.820312 6.628906 L 13.863281 6.628906 C 14.019531 6.628906 14.160156 6.683594 14.308594 6.796875 C 14.476562 6.9375 14.605469 7.117188 14.6875 7.316406 C 14.789062 7.546875 14.839844 7.773438 14.855469 8.042969 L 14.855469 8.046875 C 14.863281 8.15625 14.863281 8.261719 14.851562 8.371094 C 14.824219 8.378906 14.792969 8.390625 14.761719 8.398438 C 14.59375 8.457031 14.457031 8.523438 14.324219 8.609375 C 14.339844 8.515625 14.339844 8.417969 14.328125 8.324219 L 14.328125 8.308594 C 14.316406 8.183594 14.285156 8.058594 14.238281 7.941406 C 14.199219 7.839844 14.136719 7.746094 14.054688 7.671875 C 13.984375 7.613281 13.921875 7.585938 13.851562 7.585938 L 13.828125 7.589844 C 13.746094 7.59375 13.679688 7.632812 13.617188 7.710938 C 13.550781 7.796875 13.503906 7.898438 13.484375 8.007812 C 13.453125 8.136719 13.445312 8.269531 13.457031 8.398438 L 13.460938 8.414062 C 13.472656 8.550781 13.5 8.667969 13.550781 8.78125 C 13.59375 8.898438 13.671875 9.003906 13.769531 9.078125 C 13.691406 9.140625 13.640625 9.183594 13.574219 9.230469 L 13.429688 9.339844 C 13.296875 9.210938 13.191406 9.054688 13.125 8.882812 C 13.023438 8.652344 12.964844 8.40625 12.953125 8.15625 Z M 13.160156 9.789062 C 13.410156 9.601562 13.578125 9.476562 13.695312 9.390625 C 13.8125 9.308594 13.855469 9.277344 13.894531 9.242188 C 14.082031 9.066406 14.378906 8.742188 14.828125 8.589844 C 14.980469 8.535156 15.152344 8.503906 15.347656 8.5 C 15.714844 8.5 16.15625 8.621094 16.691406 8.964844 C 17.023438 9.179688 17.277344 9.199219 17.871094 9.449219 C 18.15625 9.566406 18.320312 9.71875 18.402344 9.878906 C 18.484375 10.039062 18.488281 10.210938 18.417969 10.394531 C 18.28125 10.757812 17.847656 11.144531 17.234375 11.332031 C 16.9375 11.429688 16.675781 11.644531 16.371094 11.820312 C 16.035156 12.027344 15.644531 12.128906 15.25 12.109375 C 15.078125 12.101562 14.910156 12.0625 14.75 11.996094 C 14.621094 11.9375 14.5 11.863281 14.390625 11.773438 C 14.175781 11.601562 13.988281 11.382812 13.710938 11.21875 L 13.707031 11.21875 C 13.265625 10.964844 13.019531 10.675781 12.945312 10.421875 C 12.867188 10.171875 12.941406 9.953125 13.160156 9.789062 Z M 13.335938 27.148438 C 13.273438 27.980469 12.804688 28.429688 12.085938 28.59375 C 11.367188 28.757812 10.390625 28.59375 9.417969 28.085938 C 8.339844 27.515625 7.058594 27.574219 6.238281 27.402344 C 5.828125 27.316406 5.558594 27.1875 5.4375 26.945312 C 5.3125 26.707031 5.3125 26.289062 5.570312 25.574219 L 5.574219 25.574219 L 5.574219 25.570312 C 5.703125 25.171875 5.609375 24.734375 5.546875 24.324219 C 5.484375 23.914062 5.453125 23.542969 5.59375 23.285156 L 5.59375 23.28125 C 5.773438 22.9375 6.035156 22.8125 6.363281 22.695312 C 6.6875 22.578125 7.074219 22.488281 7.378906 22.179688 L 7.382812 22.179688 C 7.664062 21.882812 7.878906 21.507812 8.125 21.242188 C 8.335938 21.019531 8.542969 20.871094 8.859375 20.871094 L 8.871094 20.871094 C 8.925781 20.871094 8.984375 20.875 9.046875 20.882812 C 9.464844 20.945312 9.832031 21.242188 10.183594 21.71875 L 11.203125 23.570312 C 11.472656 24.132812 12.042969 24.757812 12.527344 25.390625 C 13.011719 26.023438 13.386719 26.660156 13.335938 27.144531 Z M 13.25 25.800781 C 13.113281 25.585938 12.964844 25.375 12.808594 25.175781 C 12.707031 25.042969 12.605469 24.914062 12.5 24.785156 C 12.703125 24.785156 12.875 24.753906 13.011719 24.6875 C 13.175781 24.621094 13.304688 24.488281 13.367188 24.324219 C 13.488281 24 13.367188 23.546875 12.984375 23.023438 C 12.597656 22.503906 11.945312 21.917969 10.992188 21.332031 C 10.289062 20.894531 9.898438 20.363281 9.714844 19.78125 C 9.53125 19.199219 9.554688 18.570312 9.695312 17.949219 C 9.96875 16.757812 10.667969 15.601562 11.113281 14.871094 C 11.234375 14.785156 11.15625 15.035156 10.660156 15.953125 C 10.21875 16.792969 9.390625 18.726562 10.523438 20.238281 C 10.566406 19.136719 10.808594 18.054688 11.242188 17.042969 C 11.871094 15.617188 13.183594 13.148438 13.285156 11.179688 C 13.339844 11.21875 13.527344 11.34375 13.609375 11.390625 C 13.851562 11.535156 14.03125 11.742188 14.265625 11.929688 C 14.5 12.117188 14.792969 12.28125 15.234375 12.308594 L 15.359375 12.3125 C 15.816406 12.3125 16.171875 12.160156 16.46875 11.992188 C 16.792969 11.808594 17.050781 11.601562 17.292969 11.523438 L 17.296875 11.523438 C 17.8125 11.363281 18.222656 11.078125 18.453125 10.742188 C 18.855469 12.324219 19.789062 14.605469 20.386719 15.722656 C 20.707031 16.3125 21.339844 17.566406 21.613281 19.082031 C 21.789062 19.074219 21.980469 19.101562 22.183594 19.152344 C 22.898438 17.296875 21.578125 15.296875 20.972656 14.738281 C 20.726562 14.503906 20.714844 14.394531 20.835938 14.402344 C 21.492188 14.984375 22.355469 16.148438 22.667969 17.46875 C 22.8125 18.070312 22.839844 18.703125 22.6875 19.324219 C 22.765625 19.355469 22.839844 19.390625 22.917969 19.425781 C 24.066406 19.988281 24.492188 20.472656 24.285156 21.136719 C 24.21875 21.132812 24.152344 21.136719 24.089844 21.136719 L 24.070312 21.136719 C 24.238281 20.609375 23.871094 20.222656 22.886719 19.777344 C 21.867188 19.328125 21.054688 19.375 20.917969 20.28125 C 20.90625 20.332031 20.898438 20.378906 20.894531 20.429688 C 20.820312 20.453125 20.742188 20.488281 20.664062 20.53125 C 20.1875 20.792969 19.925781 21.265625 19.78125 21.847656 C 19.636719 22.433594 19.59375 23.132812 19.554688 23.925781 C 19.527344 24.324219 19.367188 24.863281 19.199219 25.433594 C 17.535156 26.628906 15.21875 27.144531 13.25 25.800781 Z M 26.089844 25.875 C 25.390625 26.296875 24.148438 26.667969 23.355469 27.625 C 22.664062 28.445312 21.828125 28.894531 21.089844 28.953125 C 20.347656 29.011719 19.710938 28.707031 19.335938 27.953125 L 19.335938 27.949219 L 19.332031 27.945312 C 19.101562 27.503906 19.199219 26.800781 19.394531 26.0625 C 19.589844 25.324219 19.871094 24.566406 19.910156 23.949219 C 19.949219 23.160156 19.996094 22.46875 20.128906 21.9375 C 20.261719 21.40625 20.46875 21.046875 20.839844 20.84375 L 20.890625 20.816406 C 20.933594 21.5 21.269531 22.199219 21.871094 22.347656 C 22.523438 22.519531 23.46875 21.957031 23.867188 21.5 C 23.945312 21.496094 24.023438 21.492188 24.101562 21.492188 C 24.449219 21.484375 24.742188 21.503906 25.042969 21.765625 C 25.273438 21.960938 25.382812 22.328125 25.480469 22.742188 C 25.574219 23.15625 25.648438 23.605469 25.933594 23.925781 L 25.9375 23.925781 C 26.484375 24.535156 26.660156 24.945312 26.644531 25.207031 C 26.628906 25.46875 26.441406 25.664062 26.089844 25.875 Z M 26.089844 25.875 "/>
<path style=" stroke:none;fill-rule:nonzero;fill:rgb(53.333333%,40%,80%);fill-opacity:1;" d="M 15.652344 9.015625 C 15.671875 9.078125 15.773438 9.070312 15.835938 9.101562 C 15.886719 9.125 15.929688 9.1875 15.988281 9.1875 C 16.046875 9.1875 16.132812 9.167969 16.140625 9.113281 C 16.152344 9.039062 16.042969 8.992188 15.972656 8.964844 C 15.882812 8.929688 15.769531 8.910156 15.683594 8.957031 C 15.664062 8.96875 15.644531 8.996094 15.652344 9.015625 Z M 15.039062 9.015625 C 15.015625 9.078125 14.910156 9.070312 14.851562 9.101562 C 14.800781 9.125 14.757812 9.1875 14.699219 9.1875 C 14.644531 9.1875 14.554688 9.167969 14.546875 9.113281 C 14.539062 9.039062 14.644531 8.992188 14.714844 8.964844 C 14.804688 8.929688 14.917969 8.910156 15.003906 8.957031 C 15.023438 8.96875 15.042969 8.996094 15.039062 9.015625 Z M 15.039062 9.015625 "/>
</g>
</svg>
