<?xml version="1.0" encoding="UTF-8"?>
<svg xmlns="http://www.w3.org/2000/svg" xmlns:xlink="http://www.w3.org/1999/xlink" width="32px" height="32px" viewBox="0 0 32 32" version="1.1">
<g id="surface1">
<path style=" stroke:none;fill-rule:nonzero;fill:rgb(53.333333%,40%,80%);fill-opacity:1;" d="M 18.320312 5.640625 C 17.199219 4.308594 16.226562 2.972656 16.039062 2.679688 L 16 2.679688 C 15.8125 2.960938 14.839844 4.308594 13.71875 5.640625 C 4.121094 17.894531 15.238281 26.160156 15.238281 26.160156 L 15.332031 26.226562 C 15.414062 27.492188 15.625 29.332031 15.625 29.332031 L 16.453125 29.332031 C 16.453125 29.332031 16.652344 27.507812 16.734375 26.226562 L 16.828125 26.148438 C 16.828125 26.148438 27.921875 17.894531 18.320312 5.640625 Z M 16 25.972656 C 15.765625 25.78125 15.550781 25.566406 15.359375 25.332031 L 16 12 L 16.601562 25.332031 C 16.421875 25.566406 16.21875 25.777344 16 25.972656 Z M 16 25.972656 "/>
</g>
</svg>
