<?xml version="1.0" encoding="UTF-8"?>
<svg xmlns="http://www.w3.org/2000/svg" xmlns:xlink="http://www.w3.org/1999/xlink" width="32px" height="32px" viewBox="0 0 32 32" version="1.1">
<g id="surface1">
<path style=" stroke:none;fill-rule:nonzero;fill:rgb(53.333333%,40%,80%);fill-opacity:1;" d="M 22.839844 12.90625 L 29.332031 15.734375 L 29.332031 15.585938 C 29.238281 15.265625 28.960938 14.988281 28.398438 14.425781 L 25.734375 11.761719 L 22.972656 12.921875 Z M 16.265625 9.652344 C 16.378906 9.847656 16.449219 10.058594 16.480469 10.28125 L 20.480469 12 C 20.597656 11.917969 20.730469 11.855469 20.867188 11.8125 L 21.507812 7.8125 L 18.839844 5.148438 L 16.238281 9.546875 C 16.238281 9.546875 16.238281 9.613281 16.265625 9.652344 Z M 14.148438 9.332031 C 14.519531 9.03125 15.019531 8.933594 15.480469 9.066406 L 15.546875 9.066406 L 18.425781 4.613281 L 17.546875 3.734375 C 16.988281 3.171875 16.707031 2.894531 16.386719 2.800781 C 16.113281 2.710938 15.820312 2.710938 15.546875 2.800781 C 15.226562 2.894531 14.945312 3.171875 14.386719 3.734375 L 10.386719 7.734375 C 10.800781 7.921875 13.71875 9.148438 14.09375 9.320312 Z M 9.988281 16.386719 L 10.347656 16.386719 C 10.476562 16.375 10.605469 16.375 10.734375 16.386719 L 13.90625 11.480469 L 13.90625 11.398438 C 13.570312 11.070312 13.433594 10.589844 13.546875 10.132812 L 12 9.332031 L 9.734375 8.359375 L 6.667969 11.480469 L 10.011719 16.359375 Z M 20.148438 13.132812 L 20.148438 13.027344 C 20.140625 12.964844 20.140625 12.902344 20.148438 12.839844 L 16.332031 11.148438 L 16.265625 11.148438 C 16.007812 11.539062 15.566406 11.777344 15.09375 11.773438 L 14.867188 11.773438 C 14.867188 11.773438 14.800781 11.773438 14.785156 11.839844 L 11.640625 16.667969 L 11.640625 16.734375 L 20.078125 13.132812 C 20.078125 13.132812 20.148438 13.160156 20.148438 13.132812 Z M 21.960938 11.921875 C 22.089844 11.980469 22.207031 12.066406 22.308594 12.171875 L 24.972656 11.054688 L 22.453125 8.558594 L 21.921875 11.851562 Z M 18.90625 19.308594 C 19.121094 18.90625 19.542969 18.65625 20 18.667969 L 20 18.601562 L 20.71875 14.105469 L 20.601562 14 L 12 17.535156 C 12.042969 17.652344 12.078125 17.773438 12.105469 17.894531 Z M 2.667969 15.933594 Z M 18.851562 20.171875 L 11.894531 18.667969 L 11.894531 18.746094 L 17.960938 28 L 18.519531 27.425781 C 18.71875 26.199219 19.464844 21.652344 19.558594 21.132812 C 19.171875 20.960938 18.902344 20.597656 18.851562 20.171875 Z M 21.054688 20.601562 C 20.925781 20.757812 20.761719 20.882812 20.574219 20.960938 L 19.71875 26.214844 L 24.574219 21.332031 Z M 22.480469 13.761719 C 22.453125 13.746094 22.425781 13.746094 22.398438 13.761719 C 22.199219 14.011719 21.90625 14.175781 21.585938 14.214844 L 21.585938 14.292969 L 20.851562 18.828125 C 21.113281 19.027344 21.277344 19.328125 21.308594 19.652344 L 21.386719 19.652344 L 25.320312 20.464844 L 28.359375 17.425781 C 28.6875 17.132812 28.976562 16.800781 29.226562 16.441406 Z M 11.066406 19.453125 C 10.695312 19.585938 10.289062 19.585938 9.921875 19.453125 L 8.292969 21.988281 L 14.546875 28.226562 C 14.863281 28.621094 15.257812 28.941406 15.707031 29.171875 C 15.980469 29.265625 16.273438 29.265625 16.546875 29.171875 C 16.910156 29.011719 17.230469 28.765625 17.480469 28.453125 L 11.226562 19.386719 Z M 17.347656 28.546875 Z M 8.519531 18.121094 C 8.519531 18.121094 8.601562 18.121094 8.601562 18.054688 C 8.601562 17.988281 8.601562 18.054688 8.519531 18.054688 L 3 16.90625 C 3.214844 17.160156 3.441406 17.398438 3.679688 17.625 L 5.492188 19.441406 L 8.519531 18.105469 Z M 8.894531 17.238281 C 8.960938 17.105469 9.050781 16.984375 9.160156 16.878906 L 9.160156 16.800781 C 8.132812 15.199219 7.066406 13.652344 6 12.09375 L 3.667969 14.425781 C 3.105469 14.988281 2.828125 15.265625 2.734375 15.585938 C 2.683594 15.71875 2.660156 15.859375 2.667969 16 L 8.894531 17.332031 Z M 9.121094 19.011719 C 9.085938 18.972656 9.054688 18.925781 9.027344 18.878906 L 6.121094 20 L 7.558594 21.464844 L 9.121094 19.039062 C 9.121094 19.039062 9.132812 19.011719 9.121094 19.011719 Z M 9.121094 19.011719 "/>
</g>
</svg>
