<?xml version="1.0" encoding="UTF-8"?>
<svg xmlns="http://www.w3.org/2000/svg" xmlns:xlink="http://www.w3.org/1999/xlink" width="32px" height="32px" viewBox="0 0 32 32" version="1.1">
<g id="surface1">
<path style=" stroke:none;fill-rule:nonzero;fill:rgb(53.333333%,40%,80%);fill-opacity:1;" d="M 14.320312 17.1875 L 14.320312 17.039062 C 14.398438 16.839844 14.480469 16.652344 14.574219 16.464844 C 15.3125 14.90625 15.433594 13.125 14.921875 11.480469 C 14.863281 11 14.511719 10.601562 14.039062 10.492188 C 13.046875 10.425781 12.0625 10.710938 11.265625 11.308594 L 11.265625 11.546875 C 11.355469 12.617188 11.328125 13.695312 11.1875 14.761719 C 11.035156 15.730469 11.339844 16.714844 12.011719 17.425781 C 12.507812 17.953125 13.195312 18.257812 13.921875 18.265625 C 14.035156 17.898438 14.167969 17.539062 14.320312 17.1875 Z M 13.332031 11.441406 C 13.257812 11.355469 13.214844 11.246094 13.214844 11.132812 C 13.230469 11.066406 13.273438 11.007812 13.332031 10.972656 C 13.53125 10.871094 13.753906 10.839844 13.972656 10.878906 C 14.308594 10.878906 14.640625 11.09375 14.613281 11.332031 C 14.511719 11.605469 14.25 11.78125 13.960938 11.773438 L 13.878906 11.773438 C 13.660156 11.738281 13.464844 11.617188 13.332031 11.441406 Z M 13.332031 11.441406 "/>
<path style=" stroke:none;fill-rule:nonzero;fill:rgb(53.333333%,40%,80%);fill-opacity:1;" d="M 10.507812 14.667969 C 10.625 13.648438 10.652344 12.621094 10.585938 11.601562 L 10.585938 11.226562 C 10.535156 9.027344 11.261719 6.875 12.640625 5.160156 C 11.308594 4.734375 8.105469 3.828125 6.148438 5.292969 C 4.945312 6.148438 4.386719 7.746094 4.507812 10.027344 C 4.773438 12.019531 5.21875 13.980469 5.839844 15.894531 C 6.746094 18.851562 7.773438 20.71875 8.652344 21.027344 C 8.785156 21.027344 9.199219 21.199219 9.800781 20.480469 C 10.652344 19.464844 11.441406 18.601562 11.800781 18.214844 L 11.546875 17.960938 C 10.699219 17.085938 10.3125 15.867188 10.507812 14.667969 Z M 15.171875 19.199219 C 14.960938 19.121094 14.851562 19.066406 14.613281 19.347656 C 14.46875 19.492188 14.339844 19.644531 14.226562 19.8125 C 13.761719 20.386719 13.558594 20.585938 12.214844 20.867188 C 12.03125 20.898438 11.851562 20.945312 11.679688 21.011719 C 11.828125 21.117188 11.996094 21.191406 12.171875 21.226562 C 13.398438 21.640625 14.75 21.207031 15.507812 20.160156 C 15.578125 20.011719 15.578125 19.839844 15.507812 19.691406 C 15.464844 19.492188 15.34375 19.3125 15.171875 19.199219 Z M 23.558594 11.441406 C 23.621094 11.09375 23.65625 10.738281 23.667969 10.386719 C 22.785156 10.28125 21.773438 10.292969 21.375 10.867188 C 20.601562 11.972656 22.121094 14.707031 22.707031 15.867188 C 22.835938 16.074219 22.953125 16.285156 23.054688 16.507812 C 23.105469 16.652344 23.171875 16.789062 23.253906 16.921875 C 23.601562 16.015625 23.675781 15.027344 23.464844 14.078125 C 23.402344 13.617188 23.371094 13.148438 23.375 12.679688 C 23.402344 12.261719 23.464844 11.847656 23.558594 11.441406 Z M 22.8125 11.226562 C 22.699219 11.34375 22.550781 11.421875 22.386719 11.453125 L 22.308594 11.453125 C 22.046875 11.453125 21.8125 11.296875 21.71875 11.054688 C 21.71875 10.867188 21.988281 10.734375 22.308594 10.679688 C 22.625 10.625 22.945312 10.679688 22.972656 10.878906 C 22.96875 11.011719 22.910156 11.136719 22.8125 11.226562 Z M 22.8125 11.226562 "/>
<path style=" stroke:none;fill-rule:nonzero;fill:rgb(53.333333%,40%,80%);fill-opacity:1;" d="M 22.667969 6.507812 C 23.546875 7.484375 24.171875 8.660156 24.492188 9.933594 C 24.5 10 24.5 10.066406 24.492188 10.132812 C 24.496094 10.605469 24.457031 11.082031 24.375 11.546875 C 24.308594 11.925781 24.269531 12.308594 24.253906 12.691406 C 24.25 13.140625 24.28125 13.585938 24.347656 14.027344 C 24.617188 15.25 24.445312 16.53125 23.867188 17.640625 L 23.960938 17.746094 C 26.921875 13.09375 27.960938 7.691406 27.011719 6.507812 C 25.785156 4.960938 23.90625 4.074219 21.933594 4.105469 C 21.203125 4.097656 20.472656 4.167969 19.761719 4.320312 C 20.878906 4.824219 21.875 5.570312 22.667969 6.507812 Z M 22.667969 6.507812 "/>
<path style=" stroke:none;fill-rule:nonzero;fill:rgb(53.333333%,40%,80%);fill-opacity:1;" d="M 28.867188 18.667969 C 28.773438 18.398438 28.375 17.535156 26.90625 17.839844 C 26.46875 17.933594 26.023438 17.992188 25.574219 18.011719 C 26.777344 15.976562 27.699219 13.789062 28.320312 11.507812 C 28.8125 9.574219 29.199219 6.988281 28.171875 5.667969 C 26.644531 3.726562 24.296875 2.617188 21.828125 2.667969 C 20.714844 2.660156 19.609375 2.816406 18.546875 3.132812 C 17.90625 3.019531 17.261719 2.957031 16.613281 2.945312 C 15.464844 2.921875 14.332031 3.207031 13.332031 3.773438 C 12.5625 3.519531 11.773438 3.324219 10.972656 3.1875 C 9.050781 2.695312 7.015625 3.015625 5.332031 4.066406 C 3.679688 5.226562 2.921875 7.253906 3.054688 10.09375 C 3.308594 12.203125 3.753906 14.289062 4.386719 16.320312 C 4.761719 17.589844 5.257812 18.824219 5.867188 20 C 6.300781 21.085938 7.136719 21.957031 8.199219 22.441406 C 8.984375 22.695312 9.847656 22.507812 10.453125 21.945312 C 10.808594 22.335938 11.273438 22.609375 11.785156 22.734375 C 12.824219 23.019531 13.925781 22.953125 14.921875 22.546875 L 14.921875 23.625 C 14.910156 24.691406 15.046875 25.75 15.332031 26.773438 C 15.335938 26.832031 15.335938 26.890625 15.332031 26.945312 C 15.511719 27.566406 15.835938 28.132812 16.28125 28.601562 C 16.816406 29.101562 17.53125 29.371094 18.265625 29.347656 C 18.582031 29.347656 18.894531 29.3125 19.199219 29.238281 C 20.371094 29.097656 21.433594 28.488281 22.148438 27.546875 C 23.050781 25.921875 23.46875 24.070312 23.359375 22.214844 L 23.359375 21.867188 L 23.585938 21.867188 C 24.679688 21.941406 25.777344 21.757812 26.785156 21.332031 C 27.386719 21.027344 29.332031 20 28.867188 18.667969 Z M 26.453125 20.625 C 25.691406 20.933594 24.875 21.085938 24.054688 21.078125 C 23.699219 21.089844 23.34375 21.042969 23 20.945312 C 22.867188 22.199219 22.574219 24.535156 22.398438 25.507812 C 22.292969 27.128906 21.019531 28.433594 19.398438 28.574219 C 19.109375 28.632812 18.816406 28.664062 18.519531 28.667969 C 17.328125 28.640625 16.296875 27.820312 16 26.667969 C 15.65625 24.882812 15.53125 23.066406 15.625 21.253906 C 14.976562 21.839844 14.128906 22.15625 13.253906 22.132812 C 12.832031 22.125 12.410156 22.066406 12 21.960938 C 11.878906 21.960938 10.839844 21.652344 10.851562 20.988281 C 10.867188 20.320312 11.734375 20.199219 12.054688 20.132812 C 13.199219 19.894531 13.28125 19.800781 13.640625 19.347656 C 13.71875 19.234375 13.804688 19.128906 13.894531 19.027344 C 13.375 19.007812 12.871094 18.871094 12.414062 18.625 C 12.105469 18.960938 11.265625 19.867188 10.359375 20.945312 C 10.027344 21.445312 9.476562 21.753906 8.878906 21.785156 C 8.726562 21.808594 8.566406 21.808594 8.414062 21.785156 C 7.238281 21.332031 6.132812 19.398438 5.121094 16 C 4.492188 14.03125 4.042969 12.011719 3.785156 9.960938 C 3.652344 7.398438 4.320312 5.585938 5.746094 4.625 C 8.308594 2.8125 12.414062 4.214844 13.347656 4.546875 C 14.296875 3.917969 15.421875 3.609375 16.558594 3.667969 C 17.191406 3.667969 17.816406 3.746094 18.425781 3.90625 C 19.5 3.542969 20.625 3.359375 21.761719 3.375 C 23.992188 3.3125 26.121094 4.296875 27.519531 6.039062 C 28.441406 7.214844 27.828125 10.039062 27.519531 11.226562 C 26.835938 13.785156 25.75 16.21875 24.308594 18.441406 C 24.519531 18.585938 25.171875 18.851562 26.972656 18.441406 C 27.585938 18.308594 27.945312 18.441406 28.066406 18.773438 C 28.359375 19.507812 27.132812 20.28125 26.453125 20.601562 Z M 26.453125 20.625 "/>
<path style=" stroke:none;fill-rule:nonzero;fill:rgb(53.333333%,40%,80%);fill-opacity:1;" d="M 23.238281 18.121094 C 22.898438 17.71875 22.621094 17.269531 22.414062 16.785156 C 22.414062 16.691406 22.253906 16.464844 22.105469 16.214844 C 21.332031 14.878906 19.71875 11.921875 20.773438 10.425781 C 21.496094 9.660156 22.578125 9.347656 23.601562 9.613281 C 23.257812 8.667969 22.746094 7.792969 22.09375 7.027344 C 20.746094 5.363281 18.726562 4.386719 16.585938 4.359375 C 15.324219 4.28125 14.089844 4.742188 13.1875 5.625 C 12.050781 6.964844 11.402344 8.648438 11.347656 10.398438 L 11.546875 10.292969 C 12.101562 9.996094 12.707031 9.804688 13.332031 9.734375 C 13.855469 9.613281 14.40625 9.714844 14.851562 10.015625 C 15.296875 10.316406 15.597656 10.789062 15.679688 11.320312 C 16.226562 13.125 16.089844 15.066406 15.292969 16.773438 C 15.207031 16.941406 15.132812 17.117188 15.066406 17.292969 L 15.066406 17.441406 C 14.933594 17.800781 14.8125 18.132812 14.734375 18.414062 C 14.988281 18.363281 15.257812 18.398438 15.492188 18.507812 C 15.898438 18.699219 16.199219 19.058594 16.320312 19.492188 L 16.320312 19.707031 C 16.328125 19.746094 16.328125 19.785156 16.320312 19.828125 C 16.175781 22.007812 16.273438 24.199219 16.613281 26.359375 C 16.734375 26.929688 17.101562 27.421875 17.613281 27.699219 C 18.125 27.980469 18.734375 28.019531 19.28125 27.8125 C 20.59375 27.726562 21.628906 26.652344 21.667969 25.332031 C 21.867188 24.160156 22.265625 20.867188 22.320312 20.160156 C 22.320312 18.746094 23.011719 18.464844 23.441406 18.347656 Z M 23.238281 18.121094 "/>
<path style=" stroke:none;fill-rule:nonzero;fill:rgb(53.333333%,40%,80%);fill-opacity:1;" d="M 24 19.105469 L 23.894531 19.027344 L 23.734375 19.027344 C 23.386719 19.121094 23.066406 19.214844 23.105469 20.09375 C 23.5 20.25 23.925781 20.304688 24.347656 20.253906 C 24.976562 20.226562 25.597656 20.097656 26.1875 19.867188 C 26.570312 19.691406 26.929688 19.457031 27.238281 19.171875 C 26.1875 19.542969 25.035156 19.519531 24 19.105469 Z M 24 19.105469 "/>
</g>
</svg>
