<?xml version="1.0" encoding="UTF-8"?>
<svg xmlns="http://www.w3.org/2000/svg" xmlns:xlink="http://www.w3.org/1999/xlink" width="32px" height="32px" viewBox="0 0 32 32" version="1.1">
<g id="surface1">
<path style="fill-rule:nonzero;fill:rgb(53.333333%,40%,80%);fill-opacity:1;stroke-width:1;stroke-linecap:butt;stroke-linejoin:miter;stroke:rgb(100%,100%,100%);stroke-opacity:1;stroke-miterlimit:4;" d="M 254.9375 144.25 C 263.90625 74.125 214.375 10 144.375 1.0625 C 74.375 -7.90625 10 41.625 1.0625 111.625 C -7.90625 181.625 41.625 245.875 111.625 254.9375 C 181.75 263.90625 245.875 214.375 254.9375 144.25 Z M 254.9375 144.25 " transform="matrix(0.125,0,0,0.125,0,0)"/>
<path style="fill-rule:nonzero;fill:rgb(100%,100%,100%);fill-opacity:1;stroke-width:1;stroke-linecap:butt;stroke-linejoin:miter;stroke:rgb(100%,100%,100%);stroke-opacity:1;stroke-miterlimit:4;" d="M 124.006275 36.988576 L 70.006275 90.988576 L 54.787525 75.769826 C 107.881275 22.644826 113.131275 27.269826 124.006275 36.988576 Z M 124.006275 36.988576 " transform="matrix(0.125,0,0,0.125,6.272653,5.649865)"/>
<path style="fill-rule:nonzero;fill:rgb(53.333333%,40%,80%);fill-opacity:1;stroke-width:1;stroke-linecap:butt;stroke-linejoin:miter;stroke:rgb(100%,100%,100%);stroke-opacity:1;stroke-miterlimit:4;" d="M 70.006275 92.269826 C 69.631275 92.269826 69.381275 92.144826 69.131275 91.894826 L 53.756275 76.644826 C 53.256275 76.144826 53.256275 75.363576 53.756275 74.863576 C 107.756275 20.863576 113.381275 25.988576 124.787525 36.207326 C 125.037525 36.488576 125.162525 36.738576 125.162525 37.113576 C 125.162525 37.488576 125.037525 37.738576 124.787525 38.019826 L 70.787525 91.894826 C 70.662525 92.144826 70.256275 92.269826 70.006275 92.269826 Z M 56.568775 75.769826 L 70.006275 89.207326 L 122.100025 37.113576 C 112.631275 28.676076 106.225025 26.113576 56.568775 75.769826 Z M 56.568775 75.769826 " transform="matrix(0.125,0,0,0.125,6.272653,5.649865)"/>
<path style="fill-rule:nonzero;fill:rgb(100%,100%,100%);fill-opacity:1;stroke-width:1;stroke-linecap:butt;stroke-linejoin:miter;stroke:rgb(100%,100%,100%);stroke-opacity:1;stroke-miterlimit:4;" d="M 85.506275 106.488576 L 70.787525 91.769826 L 124.787525 37.738576 C 139.256275 52.332326 117.631275 76.019826 85.506275 106.488576 Z M 85.506275 106.488576 " transform="matrix(0.125,0,0,0.125,6.272653,5.649865)"/>
<path style="fill-rule:nonzero;fill:rgb(53.333333%,40%,80%);fill-opacity:1;stroke-width:1;stroke-linecap:butt;stroke-linejoin:miter;stroke:rgb(100%,100%,100%);stroke-opacity:1;stroke-miterlimit:4;" d="M 85.506275 107.769826 C 85.100025 107.769826 84.850025 107.613576 84.600025 107.363576 L 69.881275 92.644826 C 69.631275 92.394826 69.631275 92.144826 69.631275 91.769826 C 69.631275 91.363576 69.756275 91.113576 70.006275 90.863576 L 124.006275 36.863576 C 124.537525 36.332326 125.287525 36.332326 125.818775 36.863576 C 129.131275 39.926076 130.943775 44.269826 130.787525 48.769826 C 130.537525 62.957326 114.412525 81.019826 86.506275 107.363576 C 86.131275 107.613576 85.756275 107.769826 85.506275 107.769826 Z M 72.568775 91.769826 C 80.756275 100.082326 84.225025 103.394826 85.506275 104.676076 C 107.006275 84.207326 127.850025 63.207326 127.975025 48.769826 C 128.100025 45.426076 126.818775 42.113576 124.662525 39.551076 Z M 72.568775 91.769826 " transform="matrix(0.125,0,0,0.125,6.272653,5.649865)"/>
<path style="fill-rule:nonzero;fill:rgb(100%,100%,100%);fill-opacity:1;stroke-width:1;stroke-linecap:butt;stroke-linejoin:miter;stroke:rgb(100%,100%,100%);stroke-opacity:1;stroke-miterlimit:4;" d="M 55.037525 76.144826 L 65.912525 87.019826 C 66.162525 87.269826 66.162525 87.551076 65.912525 87.801076 C 65.787525 87.926076 65.787525 87.926076 65.662525 87.926076 L 43.131275 92.769826 C 41.975025 92.926076 40.975025 92.144826 40.693775 90.988576 C 40.568775 90.363576 40.818775 89.707326 41.225025 89.332326 L 54.256275 76.269826 C 54.537525 76.019826 54.912525 75.894826 55.037525 76.144826 Z M 55.037525 76.144826 " transform="matrix(0.125,0,0,0.125,6.272653,5.649865)"/>
<path style="fill-rule:nonzero;fill:rgb(53.333333%,40%,80%);fill-opacity:1;stroke-width:1;stroke-linecap:butt;stroke-linejoin:miter;stroke:rgb(100%,100%,100%);stroke-opacity:1;stroke-miterlimit:4;" d="M 42.756275 94.051076 C 40.818775 94.051076 39.412525 92.519826 39.412525 90.613576 C 39.412525 89.707326 39.818775 88.801076 40.443775 88.176076 L 53.506275 75.113576 C 54.256275 74.488576 55.287525 74.488576 56.068775 75.113576 L 66.943775 85.988576 C 67.693775 86.644826 67.693775 87.801076 66.943775 88.551076 C 66.693775 88.801076 66.443775 88.957326 66.037525 89.082326 L 43.506275 93.926076 C 43.256275 93.926076 43.006275 94.051076 42.756275 94.051076 Z M 54.662525 77.551076 L 42.100025 90.082326 C 41.850025 90.363576 41.725025 90.738576 41.975025 91.113576 C 42.100025 91.488576 42.506275 91.644826 42.881275 91.488576 L 64.006275 86.894826 Z M 54.662525 77.551076 " transform="matrix(0.125,0,0,0.125,6.272653,5.649865)"/>
<path style="fill-rule:nonzero;fill:rgb(100%,100%,100%);fill-opacity:1;stroke-width:1;stroke-linecap:butt;stroke-linejoin:miter;stroke:rgb(100%,100%,100%);stroke-opacity:1;stroke-miterlimit:4;" d="M 152.568775 7.051076 C 144.381275 -0.886424 131.193775 -0.636424 123.256275 7.676076 C 115.318775 15.988576 115.568775 29.051076 123.881275 36.988576 C 130.662525 43.519826 140.912525 44.676076 148.975025 39.801076 L 134.381275 25.207326 Z M 152.568775 7.051076 " transform="matrix(0.125,0,0,0.125,6.272653,5.649865)"/>
<path style="fill-rule:nonzero;fill:rgb(53.333333%,40%,80%);fill-opacity:1;stroke-width:1;stroke-linecap:butt;stroke-linejoin:miter;stroke:rgb(100%,100%,100%);stroke-opacity:1;stroke-miterlimit:4;" d="M 138.225025 44.019826 C 126.068775 44.019826 116.225025 34.176076 116.225025 22.019826 C 116.225025 9.863576 126.068775 -0.011424 138.225025 -0.011424 C 143.850025 -0.011424 149.350025 2.176076 153.443775 6.144826 C 153.693775 6.394826 153.850025 6.644826 153.850025 7.051076 C 153.850025 7.426076 153.693775 7.676076 153.443775 7.926076 L 136.162525 25.207326 L 149.756275 38.769826 C 150.256275 39.301076 150.256275 40.051076 149.756275 40.582326 C 149.600025 40.707326 149.600025 40.707326 149.475025 40.832326 C 146.162525 42.863576 142.193775 44.019826 138.225025 44.019826 Z M 138.225025 2.676076 C 127.475025 2.676076 118.756275 11.394826 118.912525 22.144826 C 118.912525 32.894826 127.600025 41.582326 138.350025 41.457326 C 141.287525 41.457326 144.225025 40.832326 146.912525 39.426076 L 133.475025 26.113576 C 133.225025 25.863576 133.100025 25.582326 133.100025 25.207326 C 133.100025 24.832326 133.225025 24.582326 133.475025 24.301076 L 150.631275 7.176076 C 147.193775 4.238576 142.818775 2.676076 138.225025 2.676076 Z M 138.225025 2.676076 " transform="matrix(0.125,0,0,0.125,6.272653,5.649865)"/>
<path style="fill-rule:nonzero;fill:rgb(100%,100%,100%);fill-opacity:1;stroke-width:1;stroke-linecap:butt;stroke-linejoin:miter;stroke:rgb(100%,100%,100%);stroke-opacity:1;stroke-miterlimit:4;" d="M 152.943775 7.426076 L 152.693775 7.176076 L 134.381275 25.207326 L 148.850025 39.676076 C 150.256275 38.769826 151.662525 37.738576 152.818775 36.613576 C 161.006275 28.551076 161.006275 15.488576 152.943775 7.426076 Z M 152.943775 7.426076 " transform="matrix(0.125,0,0,0.125,6.272653,5.649865)"/>
<path style="fill-rule:nonzero;fill:rgb(53.333333%,40%,80%);fill-opacity:1;stroke-width:1;stroke-linecap:butt;stroke-linejoin:miter;stroke:rgb(100%,100%,100%);stroke-opacity:1;stroke-miterlimit:4;" d="M 148.975025 41.082326 C 148.600025 41.082326 148.318775 40.957326 148.068775 40.707326 L 133.475025 26.113576 C 133.225025 25.863576 133.100025 25.582326 133.100025 25.207326 C 133.100025 24.832326 133.225025 24.582326 133.475025 24.301076 L 151.662525 6.144826 C 152.162525 5.644826 152.943775 5.644826 153.443775 6.144826 L 153.850025 6.394826 C 162.412525 14.988576 162.412525 28.801076 153.975025 37.488576 C 152.693775 38.769826 151.287525 39.926076 149.756275 40.832326 C 149.350025 40.957326 149.100025 41.082326 148.975025 41.082326 Z M 136.162525 25.207326 L 149.100025 38.144826 C 150.131275 37.488576 151.162525 36.613576 151.912525 35.832326 C 159.225025 28.551076 159.600025 16.644826 152.568775 8.957326 Z M 136.162525 25.207326 " transform="matrix(0.125,0,0,0.125,6.272653,5.649865)"/>
<path style="fill-rule:nonzero;fill:rgb(100%,100%,100%);fill-opacity:1;stroke-width:1;stroke-linecap:butt;stroke-linejoin:miter;stroke:rgb(100%,100%,100%);stroke-opacity:1;stroke-miterlimit:4;" d="M 126.193775 39.301076 C 123.131275 36.207326 118.131275 36.207326 115.068775 39.301076 L 66.818775 87.551076 L 74.881275 95.613576 L 125.943775 50.801076 C 129.256275 47.988576 129.506275 42.988576 126.693775 39.676076 C 126.443775 39.551076 126.318775 39.426076 126.193775 39.301076 Z M 126.193775 39.301076 " transform="matrix(0.125,0,0,0.125,6.272653,5.649865)"/>
<path style="fill-rule:nonzero;fill:rgb(53.333333%,40%,80%);fill-opacity:1;stroke-width:1;stroke-linecap:butt;stroke-linejoin:miter;stroke:rgb(100%,100%,100%);stroke-opacity:1;stroke-miterlimit:4;" d="M 74.756275 96.863576 C 74.350025 96.863576 74.100025 96.738576 73.850025 96.488576 L 65.787525 88.426076 C 65.287525 87.926076 65.287525 87.144826 65.787525 86.644826 L 114.037525 38.394826 C 117.631275 34.801076 123.381275 34.801076 126.975025 38.394826 C 130.537525 41.988576 130.537525 47.738576 126.975025 51.332326 C 126.818775 51.457326 126.693775 51.582326 126.568775 51.707326 L 75.506275 96.488576 C 75.381275 96.738576 75.131275 96.863576 74.756275 96.863576 Z M 68.600025 87.551076 L 74.881275 93.801076 L 125.037525 49.769826 C 127.850025 47.488576 128.100025 43.269826 125.818775 40.426076 C 123.506275 37.613576 119.287525 37.363576 116.475025 39.676076 C 116.350025 39.801076 116.225025 39.926076 115.943775 40.051076 Z M 68.600025 87.551076 " transform="matrix(0.125,0,0,0.125,6.272653,5.649865)"/>
<path style="fill-rule:nonzero;fill:rgb(100%,100%,100%);fill-opacity:1;stroke-width:1;stroke-linecap:butt;stroke-linejoin:miter;stroke:rgb(100%,100%,100%);stroke-opacity:1;stroke-miterlimit:4;" d="M 29.818775 142.426076 C 29.318775 142.707326 29.068775 143.207326 29.193775 143.707326 L 31.350025 152.926076 C 31.881275 154.207326 31.100025 155.738576 29.693775 156.144826 C 28.662525 156.519826 27.537525 156.144826 26.881275 155.363576 L 12.818775 141.426076 L 58.756275 95.457326 L 74.631275 95.738576 L 85.381275 106.488576 C 82.818775 108.644826 67.318775 123.613576 29.818775 142.426076 Z M 29.818775 142.426076 " transform="matrix(0.125,0,0,0.125,6.272653,5.649865)"/>
<path style="fill-rule:nonzero;fill:rgb(53.333333%,40%,80%);fill-opacity:1;stroke-width:1;stroke-linecap:butt;stroke-linejoin:miter;stroke:rgb(100%,100%,100%);stroke-opacity:1;stroke-miterlimit:4;" d="M 28.818775 157.426076 C 27.787525 157.426076 26.756275 157.019826 26.131275 156.269826 L 12.162525 142.301076 C 11.912525 142.051076 11.787525 141.801076 11.787525 141.426076 C 11.787525 141.019826 11.912525 140.769826 12.162525 140.519826 L 58.100025 94.582326 C 58.381275 94.332326 58.756275 94.176076 59.006275 94.176076 L 74.881275 94.457326 C 75.256275 94.457326 75.506275 94.582326 75.756275 94.832326 L 86.506275 105.582326 C 86.787525 105.832326 86.912525 106.207326 86.912525 106.613576 C 86.912525 106.988576 86.787525 107.238576 86.381275 107.488576 L 85.506275 108.269826 C 71.943775 120.176076 53.506275 132.082326 30.600025 143.457326 L 32.756275 152.551076 C 33.162525 154.207326 32.381275 155.988576 30.850025 156.894826 C 30.068775 157.269826 29.443775 157.426076 28.818775 157.426076 Z M 14.725025 141.426076 L 27.912525 154.457326 C 28.287525 155.113576 29.068775 155.363576 29.693775 154.988576 C 30.350025 154.582326 30.600025 153.832326 30.225025 153.176076 L 28.037525 143.988576 C 27.787525 142.832326 28.287525 141.801076 29.318775 141.301076 C 51.975025 129.894826 70.256275 118.113576 83.693775 106.488576 L 74.225025 97.019826 L 59.506275 96.738576 Z M 14.725025 141.426076 " transform="matrix(0.125,0,0,0.125,6.272653,5.649865)"/>
<path style="fill-rule:nonzero;fill:rgb(100%,100%,100%);fill-opacity:1;stroke-width:1;stroke-linecap:butt;stroke-linejoin:miter;stroke:rgb(100%,100%,100%);stroke-opacity:1;stroke-miterlimit:4;" d="M 1.943775 152.426076 L 12.943775 141.426076 L 29.318775 157.801076 L 3.193775 155.988576 C 2.068775 155.863576 1.287525 154.863576 1.412525 153.707326 C 1.412525 153.176076 1.537525 152.676076 1.943775 152.426076 Z M 1.943775 152.426076 " transform="matrix(0.125,0,0,0.125,6.272653,5.649865)"/>
<path style="fill-rule:nonzero;fill:rgb(53.333333%,40%,80%);fill-opacity:1;stroke-width:1;stroke-linecap:butt;stroke-linejoin:miter;stroke:rgb(100%,100%,100%);stroke-opacity:1;stroke-miterlimit:4;" d="M 29.318775 158.957326 L 3.068775 157.144826 C 1.162525 157.019826 -0.118725 155.363576 0.006275 153.457326 C 0.131275 152.676076 0.381275 151.894826 1.037525 151.394826 L 12.037525 140.394826 C 12.537525 139.863576 13.318775 139.863576 13.818775 140.394826 L 30.225025 156.769826 C 30.600025 157.144826 30.725025 157.676076 30.475025 158.176076 C 30.225025 158.676076 29.818775 158.957326 29.318775 158.957326 Z M 12.943775 143.207326 L 2.818775 153.301076 C 2.443775 153.582326 2.443775 154.207326 2.818775 154.457326 C 2.943775 154.582326 3.068775 154.738576 3.350025 154.738576 L 25.975025 156.269826 Z M 12.943775 143.207326 " transform="matrix(0.125,0,0,0.125,6.272653,5.649865)"/>
<path style="fill-rule:nonzero;fill:rgb(53.333333%,40%,80%);fill-opacity:1;stroke-width:1;stroke-linecap:butt;stroke-linejoin:miter;stroke:rgb(100%,100%,100%);stroke-opacity:1;stroke-miterlimit:4;" d="M 54.256275 101.363576 C 53.506275 101.363576 53.006275 100.707326 53.006275 100.082326 C 53.006275 99.707326 53.131275 99.426076 53.381275 99.176076 L 65.787525 86.769826 C 66.287525 86.269826 67.068775 86.269826 67.568775 86.769826 L 75.631275 94.832326 C 76.037525 95.207326 76.162525 95.613576 76.037525 96.113576 C 75.912525 96.488576 75.506275 96.863576 75.006275 97.019826 L 54.537525 101.363576 C 54.412525 101.363576 54.256275 101.363576 54.256275 101.363576 Z M 66.693775 89.457326 L 58.225025 97.894826 L 72.068775 94.957326 Z M 66.693775 89.457326 " transform="matrix(0.125,0,0,0.125,6.272653,5.649865)"/>
<path style="fill-rule:nonzero;fill:rgb(100%,100%,100%);fill-opacity:1;stroke-width:1;stroke-linecap:butt;stroke-linejoin:miter;stroke:rgb(100%,100%,100%);stroke-opacity:1;stroke-miterlimit:4;" d="M 74.631275 95.738576 L 60.537525 98.801076 C 59.506275 99.051076 58.506275 98.426076 58.225025 97.394826 C 58.100025 96.738576 58.225025 96.113576 58.756275 95.613576 L 66.568775 87.801076 Z M 74.631275 95.738576 " transform="matrix(0.125,0,0,0.125,6.272653,5.649865)"/>
<path style="fill-rule:nonzero;fill:rgb(53.333333%,40%,80%);fill-opacity:1;stroke-width:1;stroke-linecap:butt;stroke-linejoin:miter;stroke:rgb(100%,100%,100%);stroke-opacity:1;stroke-miterlimit:4;" d="M 60.287525 100.082326 C 58.506275 100.082326 57.100025 98.676076 57.100025 96.863576 C 57.100025 95.988576 57.475025 95.207326 57.975025 94.582326 L 65.787525 86.769826 C 66.287525 86.269826 67.068775 86.269826 67.568775 86.769826 L 75.631275 94.832326 C 76.037525 95.207326 76.162525 95.613576 76.037525 96.113576 C 75.912525 96.488576 75.506275 96.863576 75.006275 97.019826 L 60.912525 100.082326 C 60.662525 100.082326 60.412525 100.082326 60.287525 100.082326 Z M 66.693775 89.457326 L 59.787525 96.363576 C 59.506275 96.613576 59.506275 96.863576 59.631275 97.144826 C 59.787525 97.394826 60.037525 97.519826 60.412525 97.519826 L 72.193775 94.957326 Z M 66.693775 89.457326 " transform="matrix(0.125,0,0,0.125,6.272653,5.649865)"/>
<path style="fill-rule:nonzero;fill:rgb(53.333333%,40%,80%);fill-opacity:1;stroke-width:1;stroke-linecap:butt;stroke-linejoin:miter;stroke:rgb(100%,100%,100%);stroke-opacity:1;stroke-miterlimit:4;" d="M 153.068775 19.707326 C 152.818775 18.926076 151.912525 18.551076 151.162525 18.801076 C 150.381275 19.082326 150.006275 19.957326 150.256275 20.738576 C 150.256275 20.863576 150.381275 20.988576 150.381275 21.113576 C 151.162525 22.644826 150.881275 24.582326 149.881275 25.988576 C 149.350025 26.613576 149.475025 27.519826 150.006275 28.019826 C 150.631275 28.551076 151.537525 28.426076 152.037525 27.769826 C 153.975025 25.332326 154.350025 22.269826 153.068775 19.707326 Z M 153.068775 19.707326 " transform="matrix(0.125,0,0,0.125,6.272653,5.649865)"/>
</g>
</svg>
