<?xml version="1.0" encoding="UTF-8"?>
<svg xmlns="http://www.w3.org/2000/svg" xmlns:xlink="http://www.w3.org/1999/xlink" width="32px" height="32px" viewBox="0 0 32 32" version="1.1">
<g id="surface1">
<path style=" stroke:none;fill-rule:nonzero;fill:rgb(53.333333%,40%,80%);fill-opacity:1;" d="M 12.78125 15.589844 L 18.550781 15.589844 C 18.550781 15.589844 21.792969 15.640625 21.792969 12.457031 L 21.792969 7.1875 C 21.792969 7.1875 22.285156 4 15.914062 4 C 9.816406 4 10.195312 6.644531 10.195312 6.644531 L 10.203125 9.382812 L 16.019531 9.382812 L 16.019531 10.207031 L 7.894531 10.207031 C 7.894531 10.207031 3.992188 9.765625 3.992188 15.914062 C 3.992188 22.066406 7.398438 21.847656 7.398438 21.847656 L 9.429688 21.847656 L 9.429688 18.996094 C 9.429688 18.996094 9.320312 15.589844 12.78125 15.589844 Z M 12.707031 7.9375 C 12.128906 7.9375 11.660156 7.46875 11.660156 6.890625 C 11.660156 6.3125 12.128906 5.84375 12.707031 5.84375 C 13.285156 5.84375 13.753906 6.3125 13.753906 6.890625 C 13.753906 7.46875 13.285156 7.9375 12.707031 7.9375 Z M 12.707031 7.9375 "/>
<path style=" stroke:none;fill-rule:nonzero;fill:rgb(53.333333%,40%,80%);fill-opacity:1;" d="M 24.601562 10.042969 L 22.570312 10.042969 L 22.570312 12.898438 C 22.570312 12.898438 22.679688 16.300781 19.21875 16.300781 L 13.449219 16.300781 C 13.449219 16.300781 10.207031 16.25 10.207031 19.4375 L 10.207031 24.703125 C 10.207031 24.703125 9.714844 27.890625 16.085938 27.890625 C 22.183594 27.890625 21.800781 25.246094 21.800781 25.246094 L 21.792969 22.507812 L 15.976562 22.507812 L 15.976562 21.6875 L 24.105469 21.6875 C 24.105469 21.6875 28.007812 22.128906 28.007812 15.976562 C 28.007812 9.824219 24.601562 10.042969 24.601562 10.042969 Z M 19.292969 23.957031 C 19.871094 23.957031 20.339844 24.425781 20.339844 25.003906 C 20.339844 25.582031 19.871094 26.050781 19.292969 26.050781 C 18.714844 26.050781 18.246094 25.582031 18.246094 25.003906 C 18.246094 24.425781 18.714844 23.957031 19.292969 23.957031 Z M 19.292969 23.957031 "/>
</g>
</svg>
