<?xml version="1.0" encoding="UTF-8"?>
<svg xmlns="http://www.w3.org/2000/svg" xmlns:xlink="http://www.w3.org/1999/xlink" width="32px" height="32px" viewBox="0 0 32 32" version="1.1">
<defs>
<clipPath id="clip1">
  <path d="M 3 1.1875 L 29 1.1875 L 29 2.132812 L 3 2.132812 Z M 3 1.1875 "/>
</clipPath>
<clipPath id="clip2">
  <path d="M 28.929688 1.1875 L 30.816406 1.1875 L 30.816406 3.070312 L 28.929688 3.070312 Z M 28.929688 1.1875 "/>
</clipPath>
<clipPath id="clip3">
  <path d="M 1.1875 1.1875 L 3.070312 1.1875 L 3.070312 3.070312 L 1.1875 3.070312 Z M 1.1875 1.1875 "/>
</clipPath>
<clipPath id="clip4">
  <path d="M 29.867188 3 L 30.816406 3 L 30.816406 29 L 29.867188 29 Z M 29.867188 3 "/>
</clipPath>
<clipPath id="clip5">
  <path d="M 28.929688 28.929688 L 30.816406 28.929688 L 30.816406 30.816406 L 28.929688 30.816406 Z M 28.929688 28.929688 "/>
</clipPath>
<clipPath id="clip6">
  <path d="M 1.1875 3 L 2.132812 3 L 2.132812 29 L 1.1875 29 Z M 1.1875 3 "/>
</clipPath>
<clipPath id="clip7">
  <path d="M 3 29.867188 L 29 29.867188 L 29 30.816406 L 3 30.816406 Z M 3 29.867188 "/>
</clipPath>
<clipPath id="clip8">
  <path d="M 1.1875 28.929688 L 3.070312 28.929688 L 3.070312 30.816406 L 1.1875 30.816406 Z M 1.1875 28.929688 "/>
</clipPath>
</defs>
<g id="surface1">
<g clip-path="url(#clip1)" clip-rule="nonzero">
<path style=" stroke:none;fill-rule:nonzero;fill:rgb(53.333333%,40%,80%);fill-opacity:1;" d="M 3.050781 1.1875 L 28.953125 1.1875 L 28.953125 2.074219 L 3.050781 2.074219 Z M 3.050781 1.1875 "/>
</g>
<g clip-path="url(#clip2)" clip-rule="nonzero">
<path style=" stroke:none;fill-rule:nonzero;fill:rgb(53.333333%,40%,80%);fill-opacity:1;" d="M 29.191406 1.1875 L 28.953125 1.1875 L 28.953125 2.074219 L 29.191406 2.074219 C 29.601562 2.074219 29.929688 2.40625 29.929688 2.8125 L 29.929688 3.050781 L 30.816406 3.050781 L 30.816406 2.8125 C 30.816406 1.914062 30.089844 1.1875 29.191406 1.1875 Z M 29.191406 1.1875 "/>
</g>
<g clip-path="url(#clip3)" clip-rule="nonzero">
<path style=" stroke:none;fill-rule:nonzero;fill:rgb(53.333333%,40%,80%);fill-opacity:1;" d="M 2.074219 2.8125 C 2.074219 2.40625 2.40625 2.074219 2.8125 2.074219 L 3.050781 2.074219 L 3.050781 1.1875 L 2.8125 1.1875 C 1.914062 1.1875 1.1875 1.914062 1.1875 2.8125 L 1.1875 3.050781 L 2.074219 3.050781 Z M 2.074219 2.8125 "/>
</g>
<g clip-path="url(#clip4)" clip-rule="nonzero">
<path style=" stroke:none;fill-rule:nonzero;fill:rgb(53.333333%,40%,80%);fill-opacity:1;" d="M 29.929688 3.050781 L 30.816406 3.050781 L 30.816406 28.953125 L 29.929688 28.953125 Z M 29.929688 3.050781 "/>
</g>
<g clip-path="url(#clip5)" clip-rule="nonzero">
<path style=" stroke:none;fill-rule:nonzero;fill:rgb(53.333333%,40%,80%);fill-opacity:1;" d="M 30.816406 29.191406 L 30.816406 28.953125 L 29.929688 28.953125 L 29.929688 29.191406 C 29.929688 29.601562 29.601562 29.929688 29.191406 29.929688 L 28.953125 29.929688 L 28.953125 30.816406 L 29.191406 30.816406 C 30.089844 30.816406 30.816406 30.089844 30.816406 29.191406 Z M 30.816406 29.191406 "/>
</g>
<g clip-path="url(#clip6)" clip-rule="nonzero">
<path style=" stroke:none;fill-rule:nonzero;fill:rgb(53.333333%,40%,80%);fill-opacity:1;" d="M 1.1875 3.050781 L 2.074219 3.050781 L 2.074219 28.953125 L 1.1875 28.953125 Z M 1.1875 3.050781 "/>
</g>
<g clip-path="url(#clip7)" clip-rule="nonzero">
<path style=" stroke:none;fill-rule:nonzero;fill:rgb(53.333333%,40%,80%);fill-opacity:1;" d="M 3.050781 29.929688 L 28.953125 29.929688 L 28.953125 30.816406 L 3.050781 30.816406 Z M 3.050781 29.929688 "/>
</g>
<g clip-path="url(#clip8)" clip-rule="nonzero">
<path style=" stroke:none;fill-rule:nonzero;fill:rgb(53.333333%,40%,80%);fill-opacity:1;" d="M 2.8125 29.929688 C 2.40625 29.929688 2.074219 29.601562 2.074219 29.191406 L 2.074219 28.953125 L 1.1875 28.953125 L 1.1875 29.191406 C 1.1875 30.089844 1.914062 30.816406 2.8125 30.816406 L 3.050781 30.816406 L 3.050781 29.929688 Z M 2.8125 29.929688 "/>
</g>
<path style=" stroke:none;fill-rule:nonzero;fill:rgb(53.333333%,40%,80%);fill-opacity:1;" d="M 7.144531 22.914062 L 4.53125 22.914062 L 8.351562 16.277344 L 4.71875 10.011719 L 7.425781 10.011719 L 10.101562 14.636719 L 10.320312 14.636719 L 13.039062 10.011719 L 15.617188 10.011719 L 11.980469 16.277344 L 15.800781 22.914062 L 13.101562 22.914062 L 10.234375 17.933594 L 10.011719 17.933594 Z M 7.144531 22.914062 "/>
<path style=" stroke:none;fill-rule:nonzero;fill:rgb(53.333333%,40%,80%);fill-opacity:1;" d="M 20.832031 23.097656 C 20.058594 23.097656 19.378906 22.910156 18.789062 22.539062 C 18.195312 22.164062 17.734375 21.597656 17.398438 20.84375 C 17.0625 20.089844 16.894531 19.15625 16.894531 18.050781 C 16.894531 16.9375 17.066406 16.003906 17.410156 15.25 C 17.753906 14.492188 18.230469 13.929688 18.839844 13.554688 C 19.449219 13.179688 20.152344 12.992188 20.953125 12.992188 C 21.558594 12.992188 22.085938 13.097656 22.53125 13.308594 C 22.972656 13.515625 23.347656 13.839844 23.65625 14.28125 L 23.839844 14.238281 L 23.839844 9.269531 L 26.285156 9.269531 L 26.285156 22.914062 L 23.839844 22.914062 L 23.839844 21.652344 L 23.65625 21.617188 C 23.382812 22.074219 23.011719 22.4375 22.542969 22.699219 C 22.070312 22.964844 21.5 23.097656 20.832031 23.097656 Z M 21.625 21.023438 C 22.3125 21.023438 22.855469 20.777344 23.257812 20.289062 C 23.65625 19.796875 23.855469 19.050781 23.855469 18.050781 C 23.855469 17.050781 23.65625 16.304688 23.257812 15.808594 C 22.855469 15.316406 22.3125 15.066406 21.625 15.066406 C 20.90625 15.066406 20.359375 15.308594 19.980469 15.789062 C 19.597656 16.265625 19.410156 17.019531 19.410156 18.050781 C 19.410156 19.074219 19.597656 19.824219 19.980469 20.304688 C 20.359375 20.785156 20.90625 21.023438 21.625 21.023438 Z M 21.625 21.023438 "/>
</g>
</svg>
